<?xml version="1.0" encoding="UTF-8"?><svg id="Capa_23" xmlns="http://www.w3.org/2000/svg" viewBox="0 0 2048 2048"><defs><style>.cls-1{fill:#fff;stroke-width:0px;}.cls-2{fill:none;stroke:#fff;stroke-miterlimit:10;stroke-width:100px;}</style></defs><path class="cls-1" d="m1024,761.6c-72.95,0-136.21-32.09-167.47-79.02v175.02h334.93v-175.02c-31.26,46.92-94.51,79.02-167.47,79.02Z"/><path class="cls-1" d="m1191.47,549.42v-41.68h-41.6c16.92,11.78,31.07,25.89,41.6,41.68Z"/><path class="cls-1" d="m898.13,507.73h-41.6v41.68c10.52-15.8,24.67-29.91,41.6-41.68Z"/><path class="cls-2" d="m463.82,629.1s514.85-693.33,1120.36,0c0,0-483.56,594.13-1120.36,0Z"/><path class="cls-1" d="m1621.84,1429.27c-103.1-118.06-211.12-205.14-321.04-258.83-63.89-31.21-129.04-51.49-194.66-60.69v101.18c139.32,23.59,276.84,107.58,410.31,250.77-22.15,22.16-56.44,53.5-100.94,85.24-74.33,53.01-193.62,118.24-339.86,128-180.49,12.03-362.84-61.15-542.59-217.66,24.37-27.23,63.27-67.05,113.78-106.91,68.73-54.23,171.97-118.25,295.02-139.27v-101.24c-59.8,8.43-119.61,25.98-178.49,52.4-61.83,27.75-122.75,65.32-181.07,111.66-98.82,78.52-156.24,155.22-158.63,158.44l-26.64,35.88,32.68,30.49c112.58,105.04,228.69,181.27,345.11,226.58,86.97,33.85,175.14,50.91,262.73,50.91,15.34,0,30.67-.52,45.97-1.57,75.57-5.18,151.02-23.22,224.25-53.63,58.11-24.12,114.93-56.04,168.89-94.87,91.91-66.13,144.12-129.74,146.3-132.42l26.61-32.7-27.73-31.75Z"/><circle class="cls-2" cx="1023.73" cy="681.98" r="211.2"/><path class="cls-1" d="m1208.43,1255.68c-29.23-29.23-64.17-50.67-102.3-63.3v109.5c47.15,28.16,78.8,79.7,78.8,138.5,0,88.89-72.31,161.2-161.2,161.2s-161.2-72.31-161.2-161.2c0-59.02,31.89-110.72,79.33-138.81v-109.36c-38.34,12.6-73.46,34.11-102.83,63.48-49.33,49.33-76.5,114.93-76.5,184.7s27.17,135.36,76.5,184.7c49.33,49.33,114.93,76.5,184.7,76.5s135.36-27.17,184.7-76.5,76.5-114.93,76.5-184.7-27.17-135.36-76.5-184.7Z"/><rect class="cls-1" x="990.93" y="845.87" width="66.13" height="768"/><path class="cls-1" d="m1057.1,1102.5c-.04-164.81,81.1-166.92,81.1-166.92l-81.14,2.11.04,164.81Z"/><ellipse class="cls-1" cx="1023.47" cy="1572.27" rx="188.27" ry="80"/><path class="cls-1" d="m990.9,1097.5c.04-164.81-81.1-166.92-81.1-166.92l81.14,2.11-.04,164.81Z"/></svg>